# xmcd
#
# Track frame offsets: 
#        150
#        24577
#        40167
#        60012
#        94252
#        120235
#        143355
#        165455
#        183292
#        201595
#        205287
#        232905
#        247940
#        258422
#        268547
#        285045
#        307137
#        326080
#
# Disc length: 4552 seconds
#
# Revision: 6
# Processed by: cddbd v1.5.2PL0 Copyright (c) Steve Scherf et al.
# Submitted via: ExactAudioCopy v1.0b3
#
DISCID=eb11c612
DTITLE=Fleetwood Mac with Guests - Blues Jam In Chicago [Disk 2]
DYEAR=2004
DGENRE=Blues
TTITLE0=World's In A Tangle
TTITLE1=Talk With You
TTITLE2=Like It This Way
TTITLE3=Someday Soon Baby
TTITLE4=Hungry Country Girl
TTITLE5=Black Jack Blues
TTITLE6=Everyday I Have The Blues
TTITLE7=Rockin' Boogie
TTITLE8=My Baby's Gone
TTITLE9=Sugar Mama (Take 1)
TTITLE10=Sugar Mama (Take 2)
TTITLE11=Homework
TTITLE12=Honey Boy Blues
TTITLE13=I Need Your Love (Take 1)
TTITLE14=Horton's Boogie Woogie
TTITLE15=Have A Good Time
TTITLE16=That's Wrong
TTITLE17=Rock Me Baby
EXTD=
EXTT0=(Blue Horizon LP 7-66227/63220]\n
EXTT1=(Blue Horizon LP 7-66227/63220)
EXTT2=(Blue Horizon LP 7-66227/63220)
EXTT3=(Blue Horizon LP 7-66227/63220)
EXTT4=(Blue Horizon LP 7-66227/63220)
EXTT5=(Blue Horizon LP 7-66227/63220)
EXTT6=(Blue Horizon LP 7-66227/63220)
EXTT7=(Blue Horizon LP 7-66227/63220)
EXTT8=(Blue Horizon LP 7-66227/63220]\n
EXTT9=* take 1 - previously unissued/incomplete
EXTT10=(Blue Horizon LP 7-66227/63220)
EXTT11=(Blue Horizon LP 7-66227/63220)
EXTT12=* previously unissued
EXTT13=* take 1 - previously unissued/incomplete
EXTT14=* take 2 - previously unissued
EXTT15=* previously unissued
EXTT16=* previously unissued
EXTT17=* previously unissued
PLAYORDER=
